<svg xmlns="http://www.w3.org/2000/svg" xmlns:xlink="http://www.w3.org/1999/xlink" width="576" zoomAndPan="magnify" viewBox="0 0 432 143.999998" height="192" preserveAspectRatio="xMidYMid meet" version="1.0"><defs><filter x="0%" y="0%" width="100%" height="100%" id="0ddd502575"><feColorMatrix values="0 0 0 0 1 0 0 0 0 1 0 0 0 0 1 0 0 0 1 0" color-interpolation-filters="sRGB"/></filter><g/><mask id="d1a9e599f6"><g filter="url(#0ddd502575)"><rect x="-43.2" width="518.4" fill="#000000" y="-14.4" height="172.799997" fill-opacity="0.44"/></g></mask><clipPath id="39ea51ef8d"><path d="M 0.601562 0.640625 L 64.921875 0.640625 L 64.921875 58.238281 L 0.601562 58.238281 Z M 0.601562 0.640625 " clip-rule="nonzero"/></clipPath><clipPath id="4c053c9178"><rect x="0" width="65" y="0" height="59"/></clipPath></defs><g fill="#e4e9f0" fill-opacity="1"><g transform="translate(81.40409, 86.440047)"><g><path d="M 0.671875 0 L 13.296875 -31.0625 L 13.921875 -31.0625 L 26.53125 0 L 19.78125 0 L 18.578125 -3.234375 L 8.640625 -3.234375 L 7.46875 0 Z M 10.8125 -8.84375 L 16.34375 -8.84375 L 13.625 -16.640625 Z M 10.8125 -8.84375 "/></g></g></g><g fill="#e4e9f0" fill-opacity="1"><g transform="translate(115.407156, 86.440047)"><g><path d="M 24.984375 -1.84375 C 23.835938 -1.195312 22.613281 -0.695312 21.3125 -0.34375 C 20.019531 0 18.660156 0.171875 17.234375 0.171875 C 14.773438 0.171875 12.597656 -0.242188 10.703125 -1.078125 C 8.816406 -1.921875 7.234375 -3.046875 5.953125 -4.453125 C 4.671875 -5.867188 3.695312 -7.460938 3.03125 -9.234375 C 2.375 -11.015625 2.03125 -12.851562 2 -14.75 C 1.976562 -16.65625 2.265625 -18.5 2.859375 -20.28125 C 3.460938 -22.070312 4.394531 -23.703125 5.65625 -25.171875 C 6.914062 -26.640625 8.507812 -27.828125 10.4375 -28.734375 C 12.363281 -29.640625 14.628906 -30.132812 17.234375 -30.21875 C 18.429688 -30.28125 19.523438 -30.226562 20.515625 -30.0625 C 21.515625 -29.894531 22.34375 -29.710938 23 -29.515625 C 23.65625 -29.316406 24.066406 -29.191406 24.234375 -29.140625 L 23.515625 -23.0625 C 22.929688 -23.3125 22.132812 -23.566406 21.125 -23.828125 C 20.125 -24.097656 18.828125 -24.203125 17.234375 -24.140625 C 15.492188 -24.085938 14.015625 -23.710938 12.796875 -23.015625 C 11.585938 -22.316406 10.625 -21.421875 9.90625 -20.328125 C 9.195312 -19.242188 8.726562 -18.054688 8.5 -16.765625 C 8.28125 -15.484375 8.296875 -14.195312 8.546875 -12.90625 C 8.796875 -11.625 9.289062 -10.441406 10.03125 -9.359375 C 10.78125 -8.285156 11.753906 -7.425781 12.953125 -6.78125 C 14.148438 -6.144531 15.578125 -5.828125 17.234375 -5.828125 C 17.515625 -5.828125 17.789062 -5.847656 18.0625 -5.890625 C 18.34375 -5.929688 18.625 -5.96875 18.90625 -6 L 18.90625 -15.015625 L 24.984375 -15.015625 Z M 24.984375 -1.84375 "/></g></g></g><g fill="#e4e9f0" fill-opacity="1"><g transform="translate(150.248721, 86.440047)"><g><path d="M 0.671875 0 L 13.296875 -31.0625 L 13.921875 -31.0625 L 26.53125 0 L 19.78125 0 L 18.578125 -3.234375 L 8.640625 -3.234375 L 7.46875 0 Z M 10.8125 -8.84375 L 16.34375 -8.84375 L 13.625 -16.640625 Z M 10.8125 -8.84375 "/></g></g></g><g fill="#e4e9f0" fill-opacity="1"><g transform="translate(184.251787, 86.440047)"><g><path d="M 9.34375 0 L 3.359375 0 L 3.359375 -29.9375 L 15.140625 -29.9375 C 16.816406 -29.9375 18.25 -29.597656 19.4375 -28.921875 C 20.625 -28.253906 21.566406 -27.375 22.265625 -26.28125 C 22.960938 -25.195312 23.425781 -23.988281 23.65625 -22.65625 C 23.894531 -21.332031 23.894531 -20.015625 23.65625 -18.703125 C 23.425781 -17.390625 22.953125 -16.1875 22.234375 -15.09375 C 21.523438 -14 20.578125 -13.113281 19.390625 -12.4375 C 18.203125 -11.769531 16.785156 -11.4375 15.140625 -11.4375 L 9.34375 -11.4375 Z M 9.34375 -17.265625 L 14.625 -17.265625 C 15.4375 -17.265625 16.078125 -17.488281 16.546875 -17.9375 C 17.023438 -18.382812 17.347656 -18.941406 17.515625 -19.609375 C 17.691406 -20.285156 17.691406 -20.957031 17.515625 -21.625 C 17.347656 -22.300781 17.023438 -22.863281 16.546875 -23.3125 C 16.078125 -23.757812 15.4375 -23.984375 14.625 -23.984375 L 9.34375 -23.984375 Z M 9.34375 -17.265625 "/></g></g></g><g fill="#e4e9f0" fill-opacity="1"><g transform="translate(216.158588, 86.440047)"><g><path d="M 0.671875 0 L 13.296875 -31.0625 L 13.921875 -31.0625 L 26.53125 0 L 19.78125 0 L 18.578125 -3.234375 L 8.640625 -3.234375 L 7.46875 0 Z M 10.8125 -8.84375 L 16.34375 -8.84375 L 13.625 -16.640625 Z M 10.8125 -8.84375 "/></g></g></g><g fill="#e4e9f0" fill-opacity="1"><g transform="translate(250.161655, 86.440047)"><g><path d="M 10.6875 0 L 10.6875 -13.5 L 0.25 -29.96875 L 7.546875 -29.96875 L 13.671875 -19.65625 L 19.78125 -29.96875 L 27.125 -29.96875 L 16.640625 -13.5 L 16.640625 0 Z M 10.6875 0 "/></g></g></g><g fill="#e4e9f0" fill-opacity="1"><g transform="translate(283.997011, 86.440047)"><g><path d="M 0.671875 0 L 13.296875 -31.0625 L 13.921875 -31.0625 L 26.53125 0 L 19.78125 0 L 18.578125 -3.234375 L 8.640625 -3.234375 L 7.46875 0 Z M 10.8125 -8.84375 L 16.34375 -8.84375 L 13.625 -16.640625 Z M 10.8125 -8.84375 "/></g></g></g><g fill="#e4e9f0" fill-opacity="1"><g transform="translate(318.000091, 86.440047)"><g><path d="M 3.359375 -29.96875 L 9.34375 -29.96875 L 9.34375 -6 L 18.859375 -6 L 18.859375 0 L 3.359375 0 Z M 3.359375 -29.96875 "/></g></g></g><g fill="#e4e9f0" fill-opacity="1"><g transform="translate(345.295092, 86.440047)"><g><path d="M 18.859375 0 L 3.359375 0 L 3.359375 -29.96875 L 18.359375 -29.96875 L 18.359375 -23.984375 L 9.34375 -23.984375 L 9.34375 -17.984375 L 17.234375 -17.984375 L 17.234375 -11.984375 L 9.34375 -11.984375 L 9.34375 -6 L 18.859375 -6 Z M 18.859375 0 "/></g></g></g><g fill="#e4e9f0" fill-opacity="1"><g transform="translate(373.051279, 86.440047)"><g><path d="M 18.28125 0 L 12.234375 -11.4375 L 9.34375 -11.4375 L 9.34375 0 L 3.359375 0 L 3.359375 -29.96875 L 15.171875 -29.96875 C 16.960938 -29.96875 18.476562 -29.597656 19.71875 -28.859375 C 20.96875 -28.117188 21.941406 -27.15625 22.640625 -25.96875 C 23.335938 -24.78125 23.769531 -23.492188 23.9375 -22.109375 C 24.101562 -20.722656 24 -19.367188 23.625 -18.046875 C 23.25 -16.722656 22.601562 -15.550781 21.6875 -14.53125 C 20.78125 -13.507812 19.585938 -12.785156 18.109375 -12.359375 L 25.0625 0 Z M 9.34375 -17.265625 L 14.625 -17.265625 C 15.4375 -17.265625 16.085938 -17.488281 16.578125 -17.9375 C 17.066406 -18.382812 17.394531 -18.941406 17.5625 -19.609375 C 17.726562 -20.285156 17.726562 -20.957031 17.5625 -21.625 C 17.394531 -22.300781 17.066406 -22.863281 16.578125 -23.3125 C 16.085938 -23.757812 15.4375 -23.984375 14.625 -23.984375 L 9.34375 -23.984375 Z M 9.34375 -17.265625 "/></g></g></g><g fill="#e4e9f0" fill-opacity="1"><g transform="translate(405.377323, 86.440047)"><g><path d="M 14.296875 0 L 8.296875 0 L 8.296875 -23.984375 L 0.84375 -23.984375 L 0.84375 -29.9375 L 21.75 -29.9375 L 21.75 -23.984375 L 14.296875 -23.984375 Z M 14.296875 0 "/></g></g></g><g mask="url(#d1a9e599f6)"><g transform="matrix(1, 0, 0, 1, 3, 44)"><g clip-path="url(#4c053c9178)"><g clip-path="url(#39ea51ef8d)"><path fill="#e4e9f0" d="M 42.214844 54.464844 C 45.886719 58.039062 52.175781 59.386719 57.542969 56.496094 C 61.550781 54.332031 65.097656 49.886719 64.664062 43.589844 C 64.371094 39.324219 57 27.15625 52.832031 20.316406 C 49.683594 15.148438 47.058594 9.542969 42.613281 5.3125 C 33.382812 -3.46875 21.957031 1.640625 18.1875 11.164062 C 21.355469 9.453125 23.714844 8.308594 29.347656 9.277344 C 39.625 11.039062 44.875 25.046875 49.65625 33.382812 C 50.816406 35.40625 51.953125 37.390625 53.1875 39.503906 C 53.957031 40.824219 54.835938 42.375 55.199219 43.855469 C 56.203125 47.945312 52.175781 50.136719 48.726562 47.234375 C 44.203125 43.429688 39.632812 32.984375 37.453125 29.097656 C 33.90625 22.765625 29.636719 16.195312 20.496094 17.738281 C 11.359375 19.289062 7.6875 28.816406 2.738281 37.605469 C -3 47.777344 4.832031 59.464844 16.289062 57.859375 C 19.660156 57.390625 21.984375 55.882812 23.792969 53.90625 C 25.027344 52.566406 27.625 48.726562 28.300781 46.996094 L 23.09375 37.996094 C 23.003906 38.074219 22.960938 38.144531 22.695312 38.464844 L 19.234375 44.335938 C 15.316406 51.039062 9.78125 49.390625 10.144531 44.886719 C 10.402344 41.550781 13.664062 37.054688 14.675781 35.332031 C 17.664062 30.226562 22.1875 21.984375 27.570312 30.421875 C 28.554688 31.972656 29.636719 34.039062 30.367188 35.28125 C 31.066406 36.46875 31.617188 37.472656 32.300781 38.667969 C 35.472656 43.636719 38.144531 50.5 42.214844 54.464844 Z M 42.214844 54.464844 " fill-opacity="1" fill-rule="evenodd"/></g></g></g></g></svg>